<svg xmlns="http://www.w3.org/2000/svg" width="105.939" height="92.132" viewBox="0 0 105.939 92.132">
  <g id="Group_826" data-name="Group 826" transform="translate(-931.381 -6783.852)">
    <g id="Group_405" data-name="Group 405" transform="translate(931.381 6783.852)">
      <path id="Path_3176" data-name="Path 3176" d="M68.433,5.663C65.819,2.309,61.794-.24,57.549.018,49.926.481,45.214,9.18,37.789,10.966c-3.766.906-7.705-.106-11.4-1.254a54.4,54.4,0,0,0-7.151-1.92h0a16.986,16.986,0,0,0-4.189-.21c-.148.012-.291.03-.432.051a13.881,13.881,0,0,0-8.2,3.377A12.689,12.689,0,0,0,4.184,13.45h0a19.1,19.1,0,0,0-2.012,3.682A29.284,29.284,0,0,0,4.163,43.243a29.284,29.284,0,0,0,22.313,13.7c8.619.68,17.116-2.551,24.579-6.916,7.782-4.551,15-10.638,18.936-18.75S73.974,12.774,68.433,5.663Z" transform="translate(24.354 24.301) rotate(-10)" fill="#fff" opacity="0.06"/>
      <path id="Path_3177" data-name="Path 3177" d="M68.433,5.663C65.819,2.309,61.794-.24,57.549.018,49.926.481,45.213,9.18,37.789,10.966c-3.765.906-7.705-.106-11.4-1.254a54.4,54.4,0,0,0-7.151-1.92h0a16.986,16.986,0,0,0-4.189-.21c-.148.012-.291.03-.432.051a13.881,13.881,0,0,0-8.2,3.377A12.69,12.69,0,0,0,4.184,13.45h0a19.1,19.1,0,0,0-2.012,3.682A29.285,29.285,0,0,0,4.163,43.243a29.284,29.284,0,0,0,22.313,13.7c8.619.68,17.116-2.551,24.579-6.916,7.782-4.551,15-10.638,18.936-18.75S73.973,12.774,68.433,5.663Z" transform="translate(91.355 38.899) rotate(133)" fill="#fff" opacity="0.06"/>
    </g>
    <path id="Path_4490" data-name="Path 4490" d="M53.2,67.192a13.73,13.73,0,0,1-3.9,1.073,6.815,6.815,0,0,0,2.988-3.76,13.494,13.494,0,0,1-4.314,1.648A6.789,6.789,0,0,0,36.226,70.8a6.649,6.649,0,0,0,.175,1.55,19.261,19.261,0,0,1-14.008-7.106,6.81,6.81,0,0,0,2.1,9.077,6.623,6.623,0,0,1-3.072-.849v.084a6.8,6.8,0,0,0,5.45,6.664,6.835,6.835,0,0,1-1.789.238,6.407,6.407,0,0,1-1.277-.126,6.8,6.8,0,0,0,6.348,4.721,13.616,13.616,0,0,1-8.438,2.911,13.763,13.763,0,0,1-1.62-.1,18.982,18.982,0,0,0,10.4,3.072c12.5,0,19.339-10.36,19.339-19.346,0-.295-.007-.589-.021-.877A13.944,13.944,0,0,0,53.2,67.192ZM49.147,69.8l-.491.358.028.6c.014.267.021.547.021.828a18.544,18.544,0,0,1-1.192,6.418,18.865,18.865,0,0,1-3.507,5.878,17.126,17.126,0,0,1-5.689,4.265A18.415,18.415,0,0,1,30.5,89.806a18.066,18.066,0,0,1-5.927-1,14.655,14.655,0,0,0,6.257-2.869L33.3,84l-3.149-.056a5.661,5.661,0,0,1-4.51-2.378,7.8,7.8,0,0,0,1.508-.26l4.258-1.417-4.328-.765a5.673,5.673,0,0,1-4.3-3.914,8.626,8.626,0,0,0,1.676.231s2.231.1,3.914-.007c-.912-.435-3.255-2.048-3.255-2.048a5.68,5.68,0,0,1-2.525-4.728,6.069,6.069,0,0,1,.154-1.333,20.417,20.417,0,0,0,13.587,6.131l1.487.077-.337-1.452a5.618,5.618,0,0,1-.147-1.3,5.672,5.672,0,0,1,9.813-3.865l.428.456.61-.119c.316-.063.624-.133.933-.217a7.878,7.878,0,0,1-.772.758c-.316.281-1.249,1.157-1.249,1.157a10.233,10.233,0,0,0,1.48.351,5.684,5.684,0,0,0,1.326-.056C49.708,69.408,49.357,69.654,49.147,69.8Z" transform="translate(949.781 6756.176)" fill="#fff" stroke="#fff" stroke-width="0.5"/>
  </g>
</svg>
