<svg xmlns="http://www.w3.org/2000/svg" width="105.939" height="92.132" viewBox="0 0 105.939 92.132">
  <g id="Group_824" data-name="Group 824" transform="translate(-699.381 -6783.852)">
    <g id="Group_409" data-name="Group 409" transform="translate(699.381 6783.852)">
      <path id="Path_3176" data-name="Path 3176" d="M68.433,5.663C65.819,2.309,61.794-.24,57.549.018,49.926.481,45.214,9.18,37.789,10.966c-3.766.906-7.705-.106-11.4-1.254a54.4,54.4,0,0,0-7.151-1.92h0a16.986,16.986,0,0,0-4.189-.21c-.148.012-.291.03-.432.051a13.881,13.881,0,0,0-8.2,3.377A12.689,12.689,0,0,0,4.184,13.45h0a19.1,19.1,0,0,0-2.012,3.682A29.284,29.284,0,0,0,4.163,43.243a29.284,29.284,0,0,0,22.313,13.7c8.619.68,17.116-2.551,24.579-6.916,7.782-4.551,15-10.638,18.936-18.75S73.974,12.774,68.433,5.663Z" transform="translate(24.354 24.301) rotate(-10)" fill="#fff" opacity="0.06"/>
      <path id="Path_3177" data-name="Path 3177" d="M68.433,5.663C65.819,2.309,61.794-.24,57.549.018,49.926.481,45.213,9.18,37.789,10.966c-3.765.906-7.705-.106-11.4-1.254a54.4,54.4,0,0,0-7.151-1.92h0a16.986,16.986,0,0,0-4.189-.21c-.148.012-.291.03-.432.051a13.881,13.881,0,0,0-8.2,3.377A12.69,12.69,0,0,0,4.184,13.45h0a19.1,19.1,0,0,0-2.012,3.682A29.285,29.285,0,0,0,4.163,43.243a29.284,29.284,0,0,0,22.313,13.7c8.619.68,17.116-2.551,24.579-6.916,7.782-4.551,15-10.638,18.936-18.75S73.973,12.774,68.433,5.663Z" transform="translate(91.355 38.899) rotate(133)" fill="#fff" opacity="0.06"/>
    </g>
    <path id="Path_4484" data-name="Path 4484" d="M21.069,21.753H16.85a.68.68,0,0,1-.68-.68V14.446c0-2.023-.219-2.926-1.518-2.926-1.175,0-1.854.46-1.854,2.812v6.742a.68.68,0,0,1-.68.68H7.894a.68.68,0,0,1-.68-.68V7.458a.68.68,0,0,1,.68-.68h4.055a.68.68,0,0,1,.68.68v.109a5.4,5.4,0,0,1,3.38-1.13c5.092,0,5.745,3.825,5.745,7.157v7.48a.68.68,0,0,1-.68.68Zm-3.539-1.36h2.864v-6.8c0-4.227-1.189-5.8-4.385-5.8a3.779,3.779,0,0,0-3.4,1.835.68.68,0,0,1-.6.363.733.733,0,0,1-.739-.68V8.138h-2.7V20.393h2.864V14.331c0-1.031,0-4.171,3.214-4.171,2.878,0,2.878,2.788,2.878,4.285ZM5.245,21.753H1.017a.68.68,0,0,1-.68-.68V7.459a.68.68,0,0,1,.68-.68H5.245a.68.68,0,0,1,.68.68V21.074A.68.68,0,0,1,5.245,21.753ZM1.7,20.394H4.566V8.139H1.7ZM3.129,6.28A3.14,3.14,0,1,1,6.257,3.129,3.144,3.144,0,0,1,3.129,6.28Zm0-4.921A1.781,1.781,0,1,0,4.9,3.129,1.771,1.771,0,0,0,3.129,1.36Z" transform="translate(744.19 6822.299)" fill="#fff" stroke="#fff" stroke-width="0.25"/>
  </g>
</svg>
