<svg xmlns="http://www.w3.org/2000/svg" width="105.939" height="92.132" viewBox="0 0 105.939 92.132">
  <g id="Group_830" data-name="Group 830" transform="translate(-815.381 -6783.852)">
    <rect id="Rectangle_135" data-name="Rectangle 135" width="45" height="45" rx="11" transform="translate(859.381 6810.676)" fill="none"/>
    <g id="Group_825" data-name="Group 825">
      <g id="Group_403" data-name="Group 403" transform="translate(815.381 6783.852)">
        <path id="Path_3176" data-name="Path 3176" d="M68.433,5.663C65.819,2.309,61.794-.24,57.549.018,49.926.481,45.214,9.18,37.789,10.966c-3.766.906-7.705-.106-11.4-1.254a54.4,54.4,0,0,0-7.151-1.92h0a16.986,16.986,0,0,0-4.189-.21c-.148.012-.291.03-.432.051a13.881,13.881,0,0,0-8.2,3.377A12.689,12.689,0,0,0,4.184,13.45h0a19.1,19.1,0,0,0-2.012,3.682A29.284,29.284,0,0,0,4.163,43.243a29.284,29.284,0,0,0,22.313,13.7c8.619.68,17.116-2.551,24.579-6.916,7.782-4.551,15-10.638,18.936-18.75S73.974,12.774,68.433,5.663Z" transform="translate(24.354 24.301) rotate(-10)" fill="#fff" opacity="0.06"/>
        <path id="Path_3177" data-name="Path 3177" d="M68.433,5.663C65.819,2.309,61.794-.24,57.549.018,49.926.481,45.213,9.18,37.789,10.966c-3.765.906-7.705-.106-11.4-1.254a54.4,54.4,0,0,0-7.151-1.92h0a16.986,16.986,0,0,0-4.189-.21c-.148.012-.291.03-.432.051a13.881,13.881,0,0,0-8.2,3.377A12.69,12.69,0,0,0,4.184,13.45h0a19.1,19.1,0,0,0-2.012,3.682A29.285,29.285,0,0,0,4.163,43.243a29.284,29.284,0,0,0,22.313,13.7c8.619.68,17.116-2.551,24.579-6.916,7.782-4.551,15-10.638,18.936-18.75S73.973,12.774,68.433,5.663Z" transform="translate(91.355 38.899) rotate(133)" fill="#fff" opacity="0.06"/>
      </g>
      <path id="Path_4489" data-name="Path 4489" d="M739.271,220.633l.018,3.222h.009v.009h5.564a.911.911,0,0,1,.907.861c0,.015,0,.031,0,.046v7.043c0,.013,0,.025,0,.037a.911.911,0,0,1-.907.861h-5.518v.009l.082,14.4H737.61v-.034l-.081-15.266a.9.9,0,0,1,.908-.908h5.527v-5.228h-.009v-.009h-5.564a.9.9,0,0,1-.907-.852c0-.015,0-.031,0-.046l-.027-4.13v-.009c0-.049,0-.1,0-.145a3.008,3.008,0,0,1,3-2.85h3.494v-5.772h-7.9a4.373,4.373,0,0,0-4.366,4.365l.045,8.531a.9.9,0,0,1-.263.644.944.944,0,0,1-.554.259c-.03,0-.06,0-.091,0h-5.318v5.228h5.355c.031,0,.062,0,.092,0l.09.014a.915.915,0,0,1,.707.707.934.934,0,0,1,.018.182l.073,15.308h-1.806l-.072-14.4h-.009v-.009H724.6a.9.9,0,0,1-.609-.237.467.467,0,0,1-.053-.053.9.9,0,0,1-.237-.609v-7.043a.91.91,0,0,1,.908-.908h5.318l-.036-7.624a6.188,6.188,0,0,1,6.181-6.181h8.8a.9.9,0,0,1,.609.237.455.455,0,0,1,.053.053.9.9,0,0,1,.237.609v7.578a.91.91,0,0,1-.908.908h-4.4A1.193,1.193,0,0,0,739.271,220.633Z" transform="translate(137.684 6604.616)" fill="#fff"/>
    </g>
  </g>
</svg>
