<svg xmlns="http://www.w3.org/2000/svg" width="105.939" height="92.132" viewBox="0 0 105.939 92.132">
  <g id="Group_829" data-name="Group 829" transform="translate(-1047.381 -6783.852)">
    <rect id="Rectangle_135" data-name="Rectangle 135" width="45" height="45" rx="11" transform="translate(1091.381 6810.676)" fill="none"/>
    <g id="Group_827" data-name="Group 827">
      <path id="Path_3176" data-name="Path 3176" d="M68.433,5.663C65.819,2.309,61.794-.24,57.549.018,49.926.481,45.214,9.18,37.789,10.966c-3.766.906-7.705-.106-11.4-1.254a54.4,54.4,0,0,0-7.151-1.92h0a16.986,16.986,0,0,0-4.189-.21c-.148.012-.291.03-.432.051a13.881,13.881,0,0,0-8.2,3.377A12.689,12.689,0,0,0,4.184,13.45h0a19.1,19.1,0,0,0-2.012,3.682A29.284,29.284,0,0,0,4.163,43.243a29.284,29.284,0,0,0,22.313,13.7c8.619.68,17.116-2.551,24.579-6.916,7.782-4.551,15-10.638,18.936-18.75S73.974,12.774,68.433,5.663Z" transform="translate(1071.734 6808.152) rotate(-10)" fill="#fff" opacity="0.06"/>
      <path id="Path_3177" data-name="Path 3177" d="M68.433,5.663C65.819,2.309,61.794-.24,57.549.018,49.926.481,45.213,9.18,37.789,10.966c-3.765.906-7.705-.106-11.4-1.254a54.4,54.4,0,0,0-7.151-1.92h0a16.986,16.986,0,0,0-4.189-.21c-.148.012-.291.03-.432.051a13.881,13.881,0,0,0-8.2,3.377A12.69,12.69,0,0,0,4.184,13.45h0a19.1,19.1,0,0,0-2.012,3.682A29.285,29.285,0,0,0,4.163,43.243a29.284,29.284,0,0,0,22.313,13.7c8.619.68,17.116-2.551,24.579-6.916,7.782-4.551,15-10.638,18.936-18.75S73.973,12.774,68.433,5.663Z" transform="translate(1138.736 6822.751) rotate(133)" fill="#fff" opacity="0.06"/>
      <path id="Path_4492" data-name="Path 4492" d="M12.829,7.268a5.561,5.561,0,0,0-5.561,5.561,5.905,5.905,0,0,0,2,4.271,5.12,5.12,0,0,0,3.561,1.29,5.561,5.561,0,0,0,0-11.121Zm0,9.171a3.61,3.61,0,1,1,3.61-3.61,3.61,3.61,0,0,1-3.61,3.61ZM19.91,7.048a1.3,1.3,0,1,1-1.3-1.3h0A1.3,1.3,0,0,1,19.91,7.048Zm3.18-1.312a5.325,5.325,0,0,0-1.25-1.919,5.3,5.3,0,0,0-1.917-1.249,7.925,7.925,0,0,0-2.629-.5C16.141,2.013,15.771,2,12.829,2s-3.31.012-4.466.066a7.933,7.933,0,0,0-2.628.5A5.306,5.306,0,0,0,3.818,3.817a5.287,5.287,0,0,0-1.25,1.919,7.94,7.94,0,0,0-.5,2.628C2.012,9.519,2,9.888,2,12.829s.012,3.31.066,4.465a7.94,7.94,0,0,0,.5,2.628,5.287,5.287,0,0,0,1.25,1.919,5.322,5.322,0,0,0,1.918,1.249,7.945,7.945,0,0,0,2.628.5c1.155.053,1.525.066,4.465.066s3.31-.012,4.465-.066a7.941,7.941,0,0,0,2.629-.5,5.537,5.537,0,0,0,3.167-3.167,7.912,7.912,0,0,0,.5-2.628c.053-1.155.065-1.524.065-4.465s-.012-3.31-.065-4.465A7.933,7.933,0,0,0,23.091,5.736ZM21.645,17.205a5.978,5.978,0,0,1-.369,2.013,3.584,3.584,0,0,1-2.058,2.058,6.006,6.006,0,0,1-2.011.373c-1.141.052-1.485.063-4.377.063S9.6,21.7,8.455,21.648a6.006,6.006,0,0,1-2.015-.373,3.357,3.357,0,0,1-1.245-.81,3.348,3.348,0,0,1-.81-1.245,5.949,5.949,0,0,1-.373-2.011c-.05-1.146-.063-1.488-.063-4.38S3.96,9.6,4.012,8.453A6.012,6.012,0,0,1,4.388,6.44,3.357,3.357,0,0,1,5.2,5.195,3.327,3.327,0,0,1,6.44,4.382a5.949,5.949,0,0,1,2.014-.368c1.141-.053,1.485-.065,4.375-.065s3.235.012,4.377.064a6.012,6.012,0,0,1,2.012.369A3.584,3.584,0,0,1,21.276,6.44a5.949,5.949,0,0,1,.373,2.011c.05,1.145.061,1.487.061,4.378S21.7,16.063,21.645,17.205Z" transform="translate(1087.381 6821)" fill="#fff"/>
    </g>
  </g>
</svg>
