<svg xmlns="http://www.w3.org/2000/svg" width="105.939" height="92.132" viewBox="0 0 105.939 92.132">
  <g id="Group_828" data-name="Group 828" transform="translate(-1161.381 -6783.852)">
    <path id="Path_4508" data-name="Path 4508" d="M68.433,5.663C65.819,2.309,61.794-.24,57.549.018,49.926.481,45.214,9.18,37.789,10.966c-3.766.906-7.705-.106-11.4-1.254a54.4,54.4,0,0,0-7.151-1.92h0a16.986,16.986,0,0,0-4.189-.21c-.148.012-.291.03-.432.051a13.881,13.881,0,0,0-8.2,3.377A12.689,12.689,0,0,0,4.184,13.45h0a19.1,19.1,0,0,0-2.012,3.682A29.284,29.284,0,0,0,4.163,43.243a29.284,29.284,0,0,0,22.313,13.7c8.619.68,17.116-2.551,24.579-6.916,7.782-4.551,15-10.638,18.936-18.75S73.974,12.774,68.433,5.663Z" transform="translate(1185.734 6808.152) rotate(-10)" fill="#fff" opacity="0.06"/>
    <path id="Path_4509" data-name="Path 4509" d="M68.433,5.663C65.819,2.309,61.794-.24,57.549.018,49.926.481,45.213,9.18,37.789,10.966c-3.765.906-7.705-.106-11.4-1.254a54.4,54.4,0,0,0-7.151-1.92h0a16.986,16.986,0,0,0-4.189-.21c-.148.012-.291.03-.432.051a13.881,13.881,0,0,0-8.2,3.377A12.69,12.69,0,0,0,4.184,13.45h0a19.1,19.1,0,0,0-2.012,3.682A29.285,29.285,0,0,0,4.163,43.243a29.284,29.284,0,0,0,22.313,13.7c8.619.68,17.116-2.551,24.579-6.916,7.782-4.551,15-10.638,18.936-18.75S73.973,12.774,68.433,5.663Z" transform="translate(1252.736 6822.751) rotate(133)" fill="#fff" opacity="0.06"/>
    <g id="Icon_feather-youtube" data-name="Icon feather-youtube" transform="translate(1195.404 6817)">
      <path id="Path_4510" data-name="Path 4510" d="M30.849,9.3a3.788,3.788,0,0,0-2.643-2.725C25.862,6,16.488,6,16.488,6S7.114,6,4.77,6.627A3.788,3.788,0,0,0,2.127,9.352,39.514,39.514,0,0,0,1.5,16.56a39.514,39.514,0,0,0,.627,7.262A3.788,3.788,0,0,0,4.77,26.438c2.344.627,11.718.627,11.718.627s9.374,0,11.718-.627a3.788,3.788,0,0,0,2.643-2.725,39.513,39.513,0,0,0,.627-7.153A39.513,39.513,0,0,0,30.849,9.3Z" transform="translate(0)" fill="none" stroke="#fff" stroke-linecap="round" stroke-linejoin="round" stroke-width="2"/>
      <path id="Path_4511" data-name="Path 4511" d="M14.625,21.631l7.835-4.456L14.625,12.72Z" transform="translate(-1.203 -0.616)" fill="none" stroke="#fff" stroke-linecap="round" stroke-linejoin="round" stroke-width="2"/>
    </g>
  </g>
</svg>
