<svg xmlns="http://www.w3.org/2000/svg" width="215.929" height="58.965" viewBox="0 0 215.929 58.965">
  <g id="Group_567" data-name="Group 567" transform="translate(-82.356 -62.481)">
    <g id="Group_1457" data-name="Group 1457" transform="translate(82.356 62.481)">
      <circle id="Ellipse_231" data-name="Ellipse 231" cx="29.482" cy="29.482" r="29.482" fill="#175cff"/>
      <path id="Path_5286" data-name="Path 5286" d="M105.212,98.646q14.9-22.6,22.866-22.6a1.929,1.929,0,0,1,1.685.651.4.4,0,0,1,.077.211c0,.065-.06.109-.174.136a.865.865,0,0,1-.364,0,1.805,1.805,0,0,0-.307-.038,10.33,10.33,0,0,0-5.515,2.336,41.118,41.118,0,0,0-6.569,5.937q-3.28,3.6-6.454,7.7a96.717,96.717,0,0,0-8.234,11.719c-.1.182-.2.272-.289.272a.642.642,0,0,1-.306-.1c-.115-.064-.122-.2-.019-.407q1.764-2.95,1.914-3.182a9.757,9.757,0,0,1-3.217,1.073.15.15,0,0,1-.152-.076q3.6-13.288,3.6-19.382a12.914,12.914,0,0,0-.386-3.16,3.866,3.866,0,0,0-1.149-2.121,2.5,2.5,0,0,0-1.57-.612,3.667,3.667,0,0,0-2.643,1.551A18.1,18.1,0,0,0,95.393,83a14.9,14.9,0,0,0-1.282,6.111q0,.5.038,1c.024.331-.038.5-.193.5a.43.43,0,0,1-.153-.23,4.739,4.739,0,0,1-.5-2.218,14.62,14.62,0,0,1,1.187-6.626,11.063,11.063,0,0,1,2.948-3.638,7.639,7.639,0,0,1,4.635-1.991,4.391,4.391,0,0,1,2.375.727q2.909,1.876,2.91,8.692a52.385,52.385,0,0,1-2.148,13.324Z" transform="translate(-78.444 -57.675)" fill="#fff"/>
    </g>
    <path id="Path_5287" data-name="Path 5287" d="M162.457,75.838l-9.925,22.924h-5.239L137.4,75.838h5.734l6.971,16.376,7.073-16.376Zm10.232,21.775a11.423,11.423,0,0,1-4.482-4.24,12.2,12.2,0,0,1,0-12.151,11.436,11.436,0,0,1,4.482-4.241,14.192,14.192,0,0,1,12.847,0,11.693,11.693,0,0,1,0,20.63,14.177,14.177,0,0,1-12.846,0Zm10.1-3.913a6.671,6.671,0,0,0,2.569-2.6,8.175,8.175,0,0,0,0-7.6,6.677,6.677,0,0,0-2.569-2.6,7.671,7.671,0,0,0-7.34,0,6.7,6.7,0,0,0-2.574,2.6,8.183,8.183,0,0,0,0,7.6,6.689,6.689,0,0,0,2.569,2.6A7.679,7.679,0,0,0,182.792,93.7Zm37.826-17.863V98.762h-4.358l-11.43-13.918V98.762h-5.239V75.838h4.387l11.4,13.918V75.838Zm27.933,18.606v4.323H228.515V95.321l12.578-15.163H228.777v-4.32h19.285v3.439L235.525,94.443Zm22.435-.589H260.338L258.3,98.765h-5.432L263.087,75.84h5.239l10.248,22.924h-5.568Zm-1.672-4.028-3.636-8.777-3.634,8.777Z" transform="translate(19.711 4.642)" fill="#0a083b"/>
  </g>
</svg>
