<svg xmlns="http://www.w3.org/2000/svg" width="81.586" height="68.81" viewBox="0 0 81.586 68.81">
  <path id="Path_3176" data-name="Path 3176" d="M68.433,5.663C65.819,2.309,61.794-.24,57.549.018,49.926.481,45.214,9.18,37.789,10.966c-3.766.906-7.705-.106-11.4-1.254a54.4,54.4,0,0,0-7.151-1.92h0a16.986,16.986,0,0,0-4.189-.21c-.148.012-.291.03-.432.051a13.881,13.881,0,0,0-8.2,3.377A12.689,12.689,0,0,0,4.184,13.45h0a19.1,19.1,0,0,0-2.012,3.682A29.284,29.284,0,0,0,4.163,43.243a29.284,29.284,0,0,0,22.313,13.7c8.619.68,17.116-2.551,24.579-6.916,7.782-4.551,15-10.638,18.936-18.75S73.974,12.774,68.433,5.663Z" transform="translate(0 12.639) rotate(-10)" fill="#fff" opacity="0.06"/>
</svg>
