<svg xmlns="http://www.w3.org/2000/svg" width="62.159" height="50.587" viewBox="0 0 62.159 50.587">
  <g id="Group_601" data-name="Group 601" transform="translate(-97.829 -2741.88)">
    <g id="Group_654" data-name="Group 654">
      <g id="Group_653" data-name="Group 653">
        <g id="Group_652" data-name="Group 652">
          <g id="Group_142" data-name="Group 142" transform="translate(97.829 2741.88)">
            <g id="Group_133" data-name="Group 133" transform="translate(27.178 43.264)">
              <path id="Path_105" data-name="Path 105" d="M754.451,734.215a.24.24,0,0,1-.07.17l-5.705,5.705a.24.24,0,0,1-.34-.34l5.705-5.705a.24.24,0,0,1,.41.17Z" transform="translate(-748.265 -733.975)" fill="#a9bdec"/>
            </g>
            <g id="Group_134" data-name="Group 134" transform="translate(23.778 21.302)">
              <path id="Path_106" data-name="Path 106" d="M757.564,650.471a.241.241,0,0,1-.07.17L735.71,672.425a.24.24,0,0,1-.34-.34L757.154,650.3a.24.24,0,0,1,.41.17Z" transform="translate(-735.3 -650.231)" fill="#a9bdec"/>
            </g>
            <g id="Group_135" data-name="Group 135" transform="translate(20.381)">
              <path id="Path_107" data-name="Path 107" d="M760.03,569.241a.24.24,0,0,1-.07.17l-37.2,37.2a.24.24,0,0,1-.34-.34l37.2-37.2a.24.24,0,0,1,.41.17Z" transform="translate(-722.349 -569.001)" fill="#a9bdec"/>
            </g>
            <g id="Group_136" data-name="Group 136" transform="translate(16.985)">
              <path id="Path_108" data-name="Path 108" d="M741.2,569.241a.241.241,0,0,1-.07.17l-31.318,31.318a.24.24,0,0,1-.34-.34l31.318-31.318a.24.24,0,0,1,.41.17Z" transform="translate(-709.398 -569.001)" fill="#a9bdec"/>
            </g>
            <g id="Group_137" data-name="Group 137" transform="translate(13.589)">
              <path id="Path_109" data-name="Path 109" d="M722.359,569.241a.24.24,0,0,1-.07.17l-25.432,25.432a.24.24,0,0,1-.34-.34l25.432-25.432a.24.24,0,0,1,.41.17Z" transform="translate(-696.447 -569.001)" fill="#a9bdec"/>
            </g>
            <g id="Group_138" data-name="Group 138" transform="translate(10.189)">
              <path id="Path_110" data-name="Path 110" d="M703.512,569.241a.241.241,0,0,1-.07.17L683.893,588.96a.24.24,0,0,1-.34-.34L703.1,569.071a.24.24,0,0,1,.41.17Z" transform="translate(-683.483 -569.001)" fill="#a9bdec"/>
            </g>
            <g id="Group_139" data-name="Group 139" transform="translate(6.793)">
              <path id="Path_111" data-name="Path 111" d="M684.676,569.241a.241.241,0,0,1-.07.17l-13.664,13.663a.24.24,0,0,1-.34-.34l13.663-13.663a.24.24,0,0,1,.41.17Z" transform="translate(-670.532 -569.001)" fill="#a9bdec"/>
            </g>
            <g id="Group_140" data-name="Group 140" transform="translate(3.396)">
              <path id="Path_112" data-name="Path 112" d="M665.838,569.241a.241.241,0,0,1-.07.17l-7.777,7.777a.24.24,0,0,1-.34-.34l7.777-7.777a.24.24,0,0,1,.41.17Z" transform="translate(-657.581 -569.001)" fill="#a9bdec"/>
            </g>
            <g id="Group_141" data-name="Group 141">
              <path id="Path_113" data-name="Path 113" d="M647,569.241a.24.24,0,0,1-.07.17L645.04,571.3a.24.24,0,0,1-.34-.34l1.891-1.891a.24.24,0,0,1,.41.17Z" transform="translate(-644.63 -569.001)" fill="#a9bdec"/>
            </g>
          </g>
          <g id="Group_334" data-name="Group 334" transform="translate(124.054 2754.736)">
            <path id="Path_3200" data-name="Path 3200" d="M45.907,51.612H24.347a3.594,3.594,0,0,1-3.594-3.594V22.864a3.594,3.594,0,0,1,3.594-3.594H45.907A3.594,3.594,0,0,1,49.5,22.864V48.018a3.594,3.594,0,0,1-3.594,3.594Z" transform="translate(-20.478 -19.27)" fill="none" stroke="#0a083b" stroke-linecap="round" stroke-linejoin="round" stroke-width="2"/>
            <path id="Path_3201" data-name="Path 3201" d="M25.877,19.27V51.612" transform="translate(-18.69 -19.27)" fill="none" stroke="#0a083b" stroke-linecap="round" stroke-linejoin="round" stroke-width="2"/>
            <path id="Path_3202" data-name="Path 3202" d="M31,25.675h7.187" transform="translate(-16.627 -16.691)" fill="none" stroke="#175cff" stroke-linecap="round" stroke-linejoin="round" stroke-width="2"/>
            <path id="Path_3203" data-name="Path 3203" d="M31,30.8h7.187" transform="translate(-16.627 -14.628)" fill="none" stroke="#175cff" stroke-linecap="round" stroke-linejoin="round" stroke-width="2"/>
          </g>
        </g>
      </g>
    </g>
    <path id="Path_3204" data-name="Path 3204" d="M15.629,15.427H58.75V58.548H15.629Z" transform="translate(101.238 2733.919)" fill="none"/>
  </g>
</svg>
