<svg xmlns="http://www.w3.org/2000/svg" width="59.37" height="49.449" viewBox="0 0 59.37 49.449">
  <g id="Group_608" data-name="Group 608" transform="translate(-97.829 -3716.059)">
    <g id="Group_375" data-name="Group 375">
      <g id="Group_286" data-name="Group 286" transform="translate(-546.801 3147.058)">
        <g id="Group_142" data-name="Group 142" transform="translate(644.63 569.001)">
          <g id="Group_133" data-name="Group 133" transform="translate(27.178 43.264)">
            <path id="Path_105" data-name="Path 105" d="M754.451,734.215a.24.24,0,0,1-.07.17l-5.705,5.705a.24.24,0,0,1-.34-.34l5.705-5.705a.24.24,0,0,1,.41.17Z" transform="translate(-748.265 -733.975)" fill="#a9bdec"/>
          </g>
          <g id="Group_134" data-name="Group 134" transform="translate(23.778 21.302)">
            <path id="Path_106" data-name="Path 106" d="M757.564,650.471a.241.241,0,0,1-.07.17L735.71,672.425a.24.24,0,0,1-.34-.34L757.154,650.3a.24.24,0,0,1,.41.17Z" transform="translate(-735.3 -650.231)" fill="#a9bdec"/>
          </g>
          <g id="Group_135" data-name="Group 135" transform="translate(20.381)">
            <path id="Path_107" data-name="Path 107" d="M760.03,569.241a.24.24,0,0,1-.07.17l-37.2,37.2a.24.24,0,0,1-.34-.34l37.2-37.2a.24.24,0,0,1,.41.17Z" transform="translate(-722.349 -569.001)" fill="#a9bdec"/>
          </g>
          <g id="Group_136" data-name="Group 136" transform="translate(16.985)">
            <path id="Path_108" data-name="Path 108" d="M741.2,569.241a.241.241,0,0,1-.07.17l-31.318,31.318a.24.24,0,0,1-.34-.34l31.318-31.318a.24.24,0,0,1,.41.17Z" transform="translate(-709.398 -569.001)" fill="#a9bdec"/>
          </g>
          <g id="Group_137" data-name="Group 137" transform="translate(13.589)">
            <path id="Path_109" data-name="Path 109" d="M722.359,569.241a.24.24,0,0,1-.07.17l-25.432,25.432a.24.24,0,0,1-.34-.34l25.432-25.432a.24.24,0,0,1,.41.17Z" transform="translate(-696.447 -569.001)" fill="#a9bdec"/>
          </g>
          <g id="Group_138" data-name="Group 138" transform="translate(10.189)">
            <path id="Path_110" data-name="Path 110" d="M703.512,569.241a.241.241,0,0,1-.07.17L683.893,588.96a.24.24,0,0,1-.34-.34L703.1,569.071a.24.24,0,0,1,.41.17Z" transform="translate(-683.483 -569.001)" fill="#a9bdec"/>
          </g>
          <g id="Group_139" data-name="Group 139" transform="translate(6.793)">
            <path id="Path_111" data-name="Path 111" d="M684.676,569.241a.241.241,0,0,1-.07.17l-13.664,13.663a.24.24,0,0,1-.34-.34l13.663-13.663a.24.24,0,0,1,.41.17Z" transform="translate(-670.532 -569.001)" fill="#a9bdec"/>
          </g>
          <g id="Group_140" data-name="Group 140" transform="translate(3.396)">
            <path id="Path_112" data-name="Path 112" d="M665.838,569.241a.241.241,0,0,1-.07.17l-7.777,7.777a.24.24,0,0,1-.34-.34l7.777-7.777a.24.24,0,0,1,.41.17Z" transform="translate(-657.581 -569.001)" fill="#a9bdec"/>
          </g>
          <g id="Group_141" data-name="Group 141">
            <path id="Path_113" data-name="Path 113" d="M647,569.241a.24.24,0,0,1-.07.17L645.04,571.3a.24.24,0,0,1-.34-.34l1.891-1.891a.24.24,0,0,1,.41.17Z" transform="translate(-644.63 -569.001)" fill="#a9bdec"/>
          </g>
        </g>
      </g>
      <g id="c" transform="translate(102.52 3707.264)">
        <path id="Path_3231" data-name="Path 3231" d="M16.48,16.256h38.2v38.2H16.48Z" fill="none"/>
        <path id="Path_3232" data-name="Path 3232" d="M33.381,19.636v3.183" transform="translate(6.974 1.395)" fill="none" stroke="#0a083b" stroke-linecap="round" stroke-linejoin="round" stroke-width="2"/>
        <path id="Path_3233" data-name="Path 3233" d="M24.367,19.636v3.183" transform="translate(3.255 1.395)" fill="none" stroke="#0a083b" stroke-linecap="round" stroke-linejoin="round" stroke-width="2"/>
        <path id="Path_3234" data-name="Path 3234" d="M19.86,26.4H45.326" transform="translate(1.395 4.184)" fill="none" stroke="#0a083b" stroke-linecap="round" stroke-linejoin="round" stroke-width="2"/>
        <path id="Path_3235" data-name="Path 3235" d="M45.326,30.313V25.538a4.775,4.775,0,0,0-4.775-4.775H24.635a4.775,4.775,0,0,0-4.775,4.775V39.862a4.775,4.775,0,0,0,4.775,4.775H31" transform="translate(1.395 1.86)" fill="none" stroke="#0a083b" stroke-linecap="round" stroke-linejoin="round" stroke-width="2"/>
        <path id="Path_3236" data-name="Path 3236" d="M36.077,34.264v2.8l2.2,1.342" transform="translate(8.087 7.431)" fill="none" stroke="#175cff" stroke-linecap="round" stroke-linejoin="round" stroke-width="2"/>
        <path id="Path_3237" data-name="Path 3237" d="M38.289,45.227a7.162,7.162,0,0,1-7.162-7.162A7.272,7.272,0,0,1,38.3,30.9a7.162,7.162,0,0,1,0,14.324" transform="translate(6.044 6.044)" fill="none" stroke="#175cff" stroke-width="2"/>
      </g>
    </g>
  </g>
</svg>
