<svg xmlns="http://www.w3.org/2000/svg" width="58.062" height="49.449" viewBox="0 0 58.062 49.449">
  <g id="Group_617" data-name="Group 617" transform="translate(-731 -1729.189)">
    <g id="Group_285" data-name="Group 285" transform="translate(86.37 1160.188)">
      <g id="Group_142" data-name="Group 142" transform="translate(644.63 569.001)">
        <g id="Group_133" data-name="Group 133" transform="translate(27.178 43.264)">
          <path id="Path_105" data-name="Path 105" d="M754.451,734.215a.24.24,0,0,1-.07.17l-5.705,5.705a.24.24,0,0,1-.34-.34l5.705-5.705a.24.24,0,0,1,.41.17Z" transform="translate(-748.265 -733.975)" fill="#a9bdec"/>
        </g>
        <g id="Group_134" data-name="Group 134" transform="translate(23.778 21.302)">
          <path id="Path_106" data-name="Path 106" d="M757.564,650.471a.241.241,0,0,1-.07.17L735.71,672.425a.24.24,0,0,1-.34-.34L757.154,650.3a.24.24,0,0,1,.41.17Z" transform="translate(-735.3 -650.231)" fill="#a9bdec"/>
        </g>
        <g id="Group_135" data-name="Group 135" transform="translate(20.381)">
          <path id="Path_107" data-name="Path 107" d="M760.03,569.241a.24.24,0,0,1-.07.17l-37.2,37.2a.24.24,0,0,1-.34-.34l37.2-37.2a.24.24,0,0,1,.41.17Z" transform="translate(-722.349 -569.001)" fill="#a9bdec"/>
        </g>
        <g id="Group_136" data-name="Group 136" transform="translate(16.985)">
          <path id="Path_108" data-name="Path 108" d="M741.2,569.241a.241.241,0,0,1-.07.17l-31.318,31.318a.24.24,0,0,1-.34-.34l31.318-31.318a.24.24,0,0,1,.41.17Z" transform="translate(-709.398 -569.001)" fill="#a9bdec"/>
        </g>
        <g id="Group_137" data-name="Group 137" transform="translate(13.589)">
          <path id="Path_109" data-name="Path 109" d="M722.359,569.241a.24.24,0,0,1-.07.17l-25.432,25.432a.24.24,0,0,1-.34-.34l25.432-25.432a.24.24,0,0,1,.41.17Z" transform="translate(-696.447 -569.001)" fill="#a9bdec"/>
        </g>
        <g id="Group_138" data-name="Group 138" transform="translate(10.189)">
          <path id="Path_110" data-name="Path 110" d="M703.512,569.241a.241.241,0,0,1-.07.17L683.893,588.96a.24.24,0,0,1-.34-.34L703.1,569.071a.24.24,0,0,1,.41.17Z" transform="translate(-683.483 -569.001)" fill="#a9bdec"/>
        </g>
        <g id="Group_139" data-name="Group 139" transform="translate(6.793)">
          <path id="Path_111" data-name="Path 111" d="M684.676,569.241a.241.241,0,0,1-.07.17l-13.664,13.663a.24.24,0,0,1-.34-.34l13.663-13.663a.24.24,0,0,1,.41.17Z" transform="translate(-670.532 -569.001)" fill="#a9bdec"/>
        </g>
        <g id="Group_140" data-name="Group 140" transform="translate(3.396)">
          <path id="Path_112" data-name="Path 112" d="M665.838,569.241a.241.241,0,0,1-.07.17l-7.777,7.777a.24.24,0,0,1-.34-.34l7.777-7.777a.24.24,0,0,1,.41.17Z" transform="translate(-657.581 -569.001)" fill="#a9bdec"/>
        </g>
        <g id="Group_141" data-name="Group 141">
          <path id="Path_113" data-name="Path 113" d="M647,569.241a.24.24,0,0,1-.07.17L645.04,571.3a.24.24,0,0,1-.34-.34l1.891-1.891a.24.24,0,0,1,.41.17Z" transform="translate(-644.63 -569.001)" fill="#a9bdec"/>
        </g>
      </g>
    </g>
    <g id="b" transform="translate(739.077 1725.184)">
      <g id="Group_344" data-name="Group 344">
        <g id="Group_343" data-name="Group 343">
          <path id="Path_3244" data-name="Path 3244" d="M25.5,42.2h3.8" fill="none" stroke="#0a083b" stroke-linecap="round" stroke-linejoin="round" stroke-width="2.5"/>
          <path id="Path_3245" data-name="Path 3245" d="M35.968,32.151V43.366a3.465,3.465,0,0,1-3.426,3.5H22.263a3.465,3.465,0,0,1-3.426-3.5V22.337a3.465,3.465,0,0,1,3.426-3.5h9.674" fill="none" stroke="#0a083b" stroke-linecap="round" stroke-linejoin="round" stroke-width="2.5"/>
        </g>
        <path id="Path_3246" data-name="Path 3246" d="M12.608,12.608H49.985V49.985H12.608Z" fill="none"/>
        <path id="Path_3247" data-name="Path 3247" d="M39.918,21.563a2.255,2.255,0,0,1,2.2,2.241c0,2.193-3.671,3.988-3.738,3.988s-3.738-1.8-3.738-3.988a2.255,2.255,0,0,1,2.2-2.241,2.025,2.025,0,0,1,1.536.667,2.025,2.025,0,0,1,1.536-.667Z" fill="none" stroke="#175cff" stroke-linecap="round" stroke-linejoin="round" stroke-width="2.5"/>
      </g>
      <path id="Path_3248" data-name="Path 3248" d="M38.477,32.529a8.372,8.372,0,0,1-3.538-.779l-5.17,1.1,1.082-5.18a8.372,8.372,0,0,1-.784-3.541" fill="none" stroke="#175cff" stroke-linecap="round" stroke-linejoin="round" stroke-width="2.5"/>
      <path id="Path_3249" data-name="Path 3249" d="M38.467,32.522a8.4,8.4,0,1,0-8.4-8.4" fill="none" stroke="#175cff" stroke-linecap="round" stroke-linejoin="round" stroke-width="2.5"/>
    </g>
  </g>
</svg>
