<svg xmlns="http://www.w3.org/2000/svg" width="58.062" height="49.449" viewBox="0 0 58.062 49.449">
  <g id="Group_609" data-name="Group 609" transform="translate(-97.829 -3576.059)">
    <g id="Group_285" data-name="Group 285" transform="translate(-546.801 3007.058)">
      <g id="Group_142" data-name="Group 142" transform="translate(644.63 569.001)">
        <g id="Group_133" data-name="Group 133" transform="translate(27.178 43.264)">
          <path id="Path_105" data-name="Path 105" d="M754.451,734.215a.24.24,0,0,1-.07.17l-5.705,5.705a.24.24,0,0,1-.34-.34l5.705-5.705a.24.24,0,0,1,.41.17Z" transform="translate(-748.265 -733.975)" fill="#a9bdec"/>
        </g>
        <g id="Group_134" data-name="Group 134" transform="translate(23.778 21.302)">
          <path id="Path_106" data-name="Path 106" d="M757.564,650.471a.241.241,0,0,1-.07.17L735.71,672.425a.24.24,0,0,1-.34-.34L757.154,650.3a.24.24,0,0,1,.41.17Z" transform="translate(-735.3 -650.231)" fill="#a9bdec"/>
        </g>
        <g id="Group_135" data-name="Group 135" transform="translate(20.381)">
          <path id="Path_107" data-name="Path 107" d="M760.03,569.241a.24.24,0,0,1-.07.17l-37.2,37.2a.24.24,0,0,1-.34-.34l37.2-37.2a.24.24,0,0,1,.41.17Z" transform="translate(-722.349 -569.001)" fill="#a9bdec"/>
        </g>
        <g id="Group_136" data-name="Group 136" transform="translate(16.985)">
          <path id="Path_108" data-name="Path 108" d="M741.2,569.241a.241.241,0,0,1-.07.17l-31.318,31.318a.24.24,0,0,1-.34-.34l31.318-31.318a.24.24,0,0,1,.41.17Z" transform="translate(-709.398 -569.001)" fill="#a9bdec"/>
        </g>
        <g id="Group_137" data-name="Group 137" transform="translate(13.589)">
          <path id="Path_109" data-name="Path 109" d="M722.359,569.241a.24.24,0,0,1-.07.17l-25.432,25.432a.24.24,0,0,1-.34-.34l25.432-25.432a.24.24,0,0,1,.41.17Z" transform="translate(-696.447 -569.001)" fill="#a9bdec"/>
        </g>
        <g id="Group_138" data-name="Group 138" transform="translate(10.189)">
          <path id="Path_110" data-name="Path 110" d="M703.512,569.241a.241.241,0,0,1-.07.17L683.893,588.96a.24.24,0,0,1-.34-.34L703.1,569.071a.24.24,0,0,1,.41.17Z" transform="translate(-683.483 -569.001)" fill="#a9bdec"/>
        </g>
        <g id="Group_139" data-name="Group 139" transform="translate(6.793)">
          <path id="Path_111" data-name="Path 111" d="M684.676,569.241a.241.241,0,0,1-.07.17l-13.664,13.663a.24.24,0,0,1-.34-.34l13.663-13.663a.24.24,0,0,1,.41.17Z" transform="translate(-670.532 -569.001)" fill="#a9bdec"/>
        </g>
        <g id="Group_140" data-name="Group 140" transform="translate(3.396)">
          <path id="Path_112" data-name="Path 112" d="M665.838,569.241a.241.241,0,0,1-.07.17l-7.777,7.777a.24.24,0,0,1-.34-.34l7.777-7.777a.24.24,0,0,1,.41.17Z" transform="translate(-657.581 -569.001)" fill="#a9bdec"/>
        </g>
        <g id="Group_141" data-name="Group 141">
          <path id="Path_113" data-name="Path 113" d="M647,569.241a.24.24,0,0,1-.07.17L645.04,571.3a.24.24,0,0,1-.34-.34l1.891-1.891a.24.24,0,0,1,.41.17Z" transform="translate(-644.63 -569.001)" fill="#a9bdec"/>
        </g>
      </g>
    </g>
    <g id="b" transform="translate(104.189 3571.986)">
      <path id="Path_3224" data-name="Path 3224" d="M13.811,12.607H48V46.8H13.811Z" transform="translate(0)" fill="none"/>
      <path id="Path_3225" data-name="Path 3225" d="M24.981,23.4H20.407a2.549,2.549,0,0,0-1.431,4.659l8.49,5.751a5.737,5.737,0,0,0,6.435,0l8.483-5.749A2.548,2.548,0,0,0,43.5,25.95h0A2.549,2.549,0,0,0,40.954,23.4H36.378" transform="translate(0.226 0.603)" fill="none" stroke="#0a083b" stroke-linecap="round" stroke-linejoin="round" stroke-width="2"/>
      <path id="Path_3226" data-name="Path 3226" d="M17.859,25.836v13.1a2.851,2.851,0,0,0,2.851,2.851H40.652A2.851,2.851,0,0,0,43.5,38.935v-13.1" transform="translate(0.226 0.739)" fill="none" stroke="#0a083b" stroke-linecap="round" stroke-linejoin="round" stroke-width="2"/>
      <path id="Path_3227" data-name="Path 3227" d="M18.611,40.529,26.48,32.66" transform="translate(0.268 1.121)" fill="none" stroke="#0a083b" stroke-linecap="round" stroke-linejoin="round" stroke-width="2"/>
      <path id="Path_3228" data-name="Path 3228" d="M33.935,32.659,41.8,40.528" transform="translate(1.124 1.12)" fill="none" stroke="#0a083b" stroke-linecap="round" stroke-linejoin="round" stroke-width="2"/>
      <path id="Path_3229" data-name="Path 3229" d="M30,16.655v9.9" transform="translate(0.905 0.226)" fill="none" stroke="#175cff" stroke-linecap="round" stroke-linejoin="round" stroke-width="2"/>
      <path id="Path_3230" data-name="Path 3230" d="M33,19.5l-2.851-2.851L27.3,19.5" transform="translate(0.754 0.226)" fill="none" stroke="#175cff" stroke-linecap="round" stroke-linejoin="round" stroke-width="2"/>
    </g>
  </g>
</svg>
