<svg xmlns="http://www.w3.org/2000/svg" width="58.062" height="49.449" viewBox="0 0 58.062 49.449">
  <g id="Group_619" data-name="Group 619" transform="translate(2565 1618)">
    <g id="Group_286" data-name="Group 286" transform="translate(-3209.63 -2187.001)">
      <g id="Group_142" data-name="Group 142" transform="translate(644.63 569.001)">
        <g id="Group_133" data-name="Group 133" transform="translate(27.178 43.264)">
          <path id="Path_105" data-name="Path 105" d="M754.451,734.215a.24.24,0,0,1-.07.17l-5.705,5.705a.24.24,0,0,1-.34-.34l5.705-5.705a.24.24,0,0,1,.41.17Z" transform="translate(-748.265 -733.975)" fill="#a9bdec"/>
        </g>
        <g id="Group_134" data-name="Group 134" transform="translate(23.778 21.302)">
          <path id="Path_106" data-name="Path 106" d="M757.564,650.471a.241.241,0,0,1-.07.17L735.71,672.425a.24.24,0,0,1-.34-.34L757.154,650.3a.24.24,0,0,1,.41.17Z" transform="translate(-735.3 -650.231)" fill="#a9bdec"/>
        </g>
        <g id="Group_135" data-name="Group 135" transform="translate(20.381)">
          <path id="Path_107" data-name="Path 107" d="M760.03,569.241a.24.24,0,0,1-.07.17l-37.2,37.2a.24.24,0,0,1-.34-.34l37.2-37.2a.24.24,0,0,1,.41.17Z" transform="translate(-722.349 -569.001)" fill="#a9bdec"/>
        </g>
        <g id="Group_136" data-name="Group 136" transform="translate(16.985)">
          <path id="Path_108" data-name="Path 108" d="M741.2,569.241a.241.241,0,0,1-.07.17l-31.318,31.318a.24.24,0,0,1-.34-.34l31.318-31.318a.24.24,0,0,1,.41.17Z" transform="translate(-709.398 -569.001)" fill="#a9bdec"/>
        </g>
        <g id="Group_137" data-name="Group 137" transform="translate(13.589)">
          <path id="Path_109" data-name="Path 109" d="M722.359,569.241a.24.24,0,0,1-.07.17l-25.432,25.432a.24.24,0,0,1-.34-.34l25.432-25.432a.24.24,0,0,1,.41.17Z" transform="translate(-696.447 -569.001)" fill="#a9bdec"/>
        </g>
        <g id="Group_138" data-name="Group 138" transform="translate(10.189)">
          <path id="Path_110" data-name="Path 110" d="M703.512,569.241a.241.241,0,0,1-.07.17L683.893,588.96a.24.24,0,0,1-.34-.34L703.1,569.071a.24.24,0,0,1,.41.17Z" transform="translate(-683.483 -569.001)" fill="#a9bdec"/>
        </g>
        <g id="Group_139" data-name="Group 139" transform="translate(6.793)">
          <path id="Path_111" data-name="Path 111" d="M684.676,569.241a.241.241,0,0,1-.07.17l-13.664,13.663a.24.24,0,0,1-.34-.34l13.663-13.663a.24.24,0,0,1,.41.17Z" transform="translate(-670.532 -569.001)" fill="#a9bdec"/>
        </g>
        <g id="Group_140" data-name="Group 140" transform="translate(3.396)">
          <path id="Path_112" data-name="Path 112" d="M665.838,569.241a.241.241,0,0,1-.07.17l-7.777,7.777a.24.24,0,0,1-.34-.34l7.777-7.777a.24.24,0,0,1,.41.17Z" transform="translate(-657.581 -569.001)" fill="#a9bdec"/>
        </g>
        <g id="Group_141" data-name="Group 141">
          <path id="Path_113" data-name="Path 113" d="M647,569.241a.24.24,0,0,1-.07.17L645.04,571.3a.24.24,0,0,1-.34-.34l1.891-1.891a.24.24,0,0,1,.41.17Z" transform="translate(-644.63 -569.001)" fill="#a9bdec"/>
        </g>
      </g>
    </g>
    <g id="Group_618" data-name="Group 618" transform="translate(-2770.835 -2069.606)">
      <path id="Path_4390" data-name="Path 4390" d="M263.9,485.895a.613.613,0,0,0-.056.117,2.211,2.211,0,0,1-1.669,1.718q-6.2,1.667-12.414,3.308a5.447,5.447,0,0,1-1.346.177q-4.855.024-9.711.009a6.978,6.978,0,0,1-3.54-.994c-.065-.037-.135-.065-.237-.115-.007.123-.017.217-.018.31,0,.809,0,1.618,0,2.428a.553.553,0,0,1-.633.632q-1.9.006-3.791,0c-.442,0-.643-.208-.643-.661q0-6.385,0-12.77a.579.579,0,0,1,.65-.664q1.879-.012,3.758,0c.46,0,.657.214.66.684,0,.885,0,1.77,0,2.728a7.67,7.67,0,0,1,4.488-1.15V470.378c-.311,0-.618,0-.925,0-.537,0-.73-.19-.73-.715q0-2.677,0-5.354c0-.514.189-.7.7-.7h24.51c.53,0,.725.189.726.72q0,2.66,0,5.321c0,.526-.2.723-.724.729-.309,0-.619,0-.975,0v.377q0,6.1,0,12.205c0,.243.043.356.31.432a2.18,2.18,0,0,1,1.542,1.557c.022.072.05.143.075.214Zm-23.337-4.249c1.069,0,2.109-.011,3.149.005a5.347,5.347,0,0,1,1.253.123c2.645.689,5.285,1.4,7.923,2.114a2.122,2.122,0,0,1,1.326,1.087c.035.064.081.123.123.186l6.492-1.744V470.4H240.56Zm2.913,8.457c1.1,0,2.2-.032,3.292.008a13.852,13.852,0,0,0,4.26-.548c3.592-1,7.2-1.941,10.8-2.912a1.13,1.13,0,1,0-.586-2.172c-2.171.579-4.34,1.165-6.511,1.74a.361.361,0,0,0-.307.318,2.191,2.191,0,0,1-2.671,1.688c-1.6-.386-3.189-.838-4.782-1.263-.422-.113-.608-.368-.525-.7.088-.355.381-.5.815-.38,1.529.407,3.057.822,4.589,1.217a1.5,1.5,0,0,0,.683.015,1.1,1.1,0,0,0,.835-1.074,1.192,1.192,0,0,0-.963-1.122c-2.266-.608-4.531-1.221-6.8-1.813a7.52,7.52,0,0,0-1.69-.311c-1.717-.04-3.436-.027-5.155-.009a6.094,6.094,0,0,0-3.619,1.232.508.508,0,0,0-.24.464q.017,1.962,0,3.924a.533.533,0,0,0,.261.488,6.15,6.15,0,0,0,3.691,1.214Q241.162,490.1,243.473,490.1Zm-4.587-25.357v4.486h23.634v-4.486Zm-5.13,27.6V480.539h-2.767v11.807Z" transform="translate(0)" fill="#0a083b"/>
      <path id="Path_4391" data-name="Path 4391" d="M480.751,575.352c.886,0,1.773,0,2.659,0,.439,0,.682.2.69.544s-.244.583-.692.584q-2.692.007-5.385,0c-.443,0-.691-.238-.672-.6.017-.327.243-.521.641-.524C478.912,575.349,479.832,575.353,480.751,575.352Z" transform="translate(-230.026 -103.849)" fill="#175cff"/>
      <path id="Path_4392" data-name="Path 4392" d="M480.751,607.352c.886,0,1.773,0,2.659,0,.439,0,.682.2.69.544s-.244.583-.692.584q-2.692.007-5.385,0c-.443,0-.691-.238-.672-.6.017-.327.243-.521.641-.524C478.912,607.349,479.832,607.353,480.751,607.352Z" transform="translate(-230.026 -133.588)" fill="#175cff"/>
      <path id="Path_4393" data-name="Path 4393" d="M480.751,639.352c.886,0,1.773,0,2.659,0,.439,0,.682.2.69.544s-.244.583-.692.584q-2.692.007-5.385,0c-.443,0-.691-.238-.672-.6.017-.327.243-.521.641-.524C478.912,639.349,479.832,639.353,480.751,639.352Z" transform="translate(-230.026 -163.327)" fill="#175cff"/>
    </g>
  </g>
</svg>
