<svg xmlns="http://www.w3.org/2000/svg" width="58.062" height="49.449" viewBox="0 0 58.062 49.449">
  <g id="Group_607" data-name="Group 607" transform="translate(-97.829 -3447.059)">
    <g id="Group_284" data-name="Group 284" transform="translate(-546.801 2878.058)">
      <g id="Group_142" data-name="Group 142" transform="translate(644.63 569.001)">
        <g id="Group_133" data-name="Group 133" transform="translate(27.178 43.264)">
          <path id="Path_105" data-name="Path 105" d="M754.451,734.215a.24.24,0,0,1-.07.17l-5.705,5.705a.24.24,0,0,1-.34-.34l5.705-5.705a.24.24,0,0,1,.41.17Z" transform="translate(-748.265 -733.975)" fill="#a9bdec"/>
        </g>
        <g id="Group_134" data-name="Group 134" transform="translate(23.778 21.302)">
          <path id="Path_106" data-name="Path 106" d="M757.564,650.471a.241.241,0,0,1-.07.17L735.71,672.425a.24.24,0,0,1-.34-.34L757.154,650.3a.24.24,0,0,1,.41.17Z" transform="translate(-735.3 -650.231)" fill="#a9bdec"/>
        </g>
        <g id="Group_135" data-name="Group 135" transform="translate(20.381)">
          <path id="Path_107" data-name="Path 107" d="M760.03,569.241a.24.24,0,0,1-.07.17l-37.2,37.2a.24.24,0,0,1-.34-.34l37.2-37.2a.24.24,0,0,1,.41.17Z" transform="translate(-722.349 -569.001)" fill="#a9bdec"/>
        </g>
        <g id="Group_136" data-name="Group 136" transform="translate(16.985)">
          <path id="Path_108" data-name="Path 108" d="M741.2,569.241a.241.241,0,0,1-.07.17l-31.318,31.318a.24.24,0,0,1-.34-.34l31.318-31.318a.24.24,0,0,1,.41.17Z" transform="translate(-709.398 -569.001)" fill="#a9bdec"/>
        </g>
        <g id="Group_137" data-name="Group 137" transform="translate(13.589)">
          <path id="Path_109" data-name="Path 109" d="M722.359,569.241a.24.24,0,0,1-.07.17l-25.432,25.432a.24.24,0,0,1-.34-.34l25.432-25.432a.24.24,0,0,1,.41.17Z" transform="translate(-696.447 -569.001)" fill="#a9bdec"/>
        </g>
        <g id="Group_138" data-name="Group 138" transform="translate(10.189)">
          <path id="Path_110" data-name="Path 110" d="M703.512,569.241a.241.241,0,0,1-.07.17L683.893,588.96a.24.24,0,0,1-.34-.34L703.1,569.071a.24.24,0,0,1,.41.17Z" transform="translate(-683.483 -569.001)" fill="#a9bdec"/>
        </g>
        <g id="Group_139" data-name="Group 139" transform="translate(6.793)">
          <path id="Path_111" data-name="Path 111" d="M684.676,569.241a.241.241,0,0,1-.07.17l-13.664,13.663a.24.24,0,0,1-.34-.34l13.663-13.663a.24.24,0,0,1,.41.17Z" transform="translate(-670.532 -569.001)" fill="#a9bdec"/>
        </g>
        <g id="Group_140" data-name="Group 140" transform="translate(3.396)">
          <path id="Path_112" data-name="Path 112" d="M665.838,569.241a.241.241,0,0,1-.07.17l-7.777,7.777a.24.24,0,0,1-.34-.34l7.777-7.777a.24.24,0,0,1,.41.17Z" transform="translate(-657.581 -569.001)" fill="#a9bdec"/>
        </g>
        <g id="Group_141" data-name="Group 141">
          <path id="Path_113" data-name="Path 113" d="M647,569.241a.24.24,0,0,1-.07.17L645.04,571.3a.24.24,0,0,1-.34-.34l1.891-1.891a.24.24,0,0,1,.41.17Z" transform="translate(-644.63 -569.001)" fill="#a9bdec"/>
        </g>
      </g>
    </g>
    <g id="a" transform="translate(102.702 3443.963)">
      <path id="Path_3218" data-name="Path 3218" d="M36.368,38.425v4.714a1.886,1.886,0,0,1-1.429,1.829l-3.771.943a1.886,1.886,0,0,1-2.337-1.829V34.657L20.973,26.8a1.509,1.509,0,0,1-.441-1.066v-3.9a1.509,1.509,0,0,1,1.509-1.509H43.155a1.509,1.509,0,0,1,1.509,1.509v1.508" transform="translate(0.799 0.799)" fill="none" stroke="#0a083b" stroke-linecap="round" stroke-linejoin="round" stroke-width="2"/>
      <path id="Path_3219" data-name="Path 3219" d="M15.3,15.1H51.49V51.288H15.3Z" transform="translate(0 0)" fill="none"/>
      <g id="Group_339" data-name="Group 339" transform="translate(37.396 28.096)">
        <path id="Path_3220" data-name="Path 3220" d="M39.518,36.518A5.071,5.071,0,1,0,35.49,34.5a5.071,5.071,0,0,0,4.028,2.022" transform="translate(-34.471 -26.375)" fill="none" stroke="#175cff" stroke-linecap="round" stroke-linejoin="round" stroke-width="1"/>
        <path id="Path_3221" data-name="Path 3221" d="M38.85,29.07v-.461" transform="translate(-33.802 -26.034)" fill="none" stroke="#175cff" stroke-linecap="round" stroke-linejoin="round" stroke-width="1"/>
        <path id="Path_3222" data-name="Path 3222" d="M38.85,32.589v.461" transform="translate(-33.802 -25.427)" fill="none" stroke="#175cff" stroke-linecap="round" stroke-linejoin="round" stroke-width="1"/>
        <path id="Path_3223" data-name="Path 3223" d="M37.838,32.643a.991.991,0,0,0,.851.493h.754a.966.966,0,0,0,.231-1.9l-1.29-.324a.966.966,0,0,1,.231-1.9h.756a.989.989,0,0,1,.848.491" transform="translate(-33.984 -25.973)" fill="none" stroke="#175cff" stroke-linecap="round" stroke-linejoin="round" stroke-width="1"/>
      </g>
    </g>
  </g>
</svg>
