<svg xmlns="http://www.w3.org/2000/svg" width="31.973" height="36.127" viewBox="0 0 31.973 36.127">
  <g id="Group_620" data-name="Group 620" transform="translate(-39.422 -144)">
    <path id="Path_4394" data-name="Path 4394" d="M62.2,223.592c-.008-.009-.015-.022-.024-.025a2.974,2.974,0,0,1-2.433-3.334q0-3.033,0-6.067a2.926,2.926,0,0,1,3.122-3.132h6.8c-.147-.486-.267-.948-.428-1.4a.751.751,0,0,0-.89-.459c-.471.091-.935.222-1.406.315a2.183,2.183,0,0,1-2.306-1q-.716-1.151-1.392-2.327a2.084,2.084,0,0,1,.328-2.535c.284-.3.586-.577.871-.873a.714.714,0,0,0,0-1.089c-.26-.272-.532-.53-.8-.8a2.108,2.108,0,0,1-.348-2.7q.636-1.076,1.287-2.144a2.233,2.233,0,0,1,2.537-1.053c.388.091.773.192,1.163.276a.809.809,0,0,0,1.012-.584c.114-.358.2-.723.315-1.081a2.2,2.2,0,0,1,2.094-1.593c.927-.019,1.854-.018,2.781,0a2.19,2.19,0,0,1,2.1,1.581c.118.369.216.744.336,1.112a.793.793,0,0,0,.987.568c.39-.083.775-.183,1.163-.275a2.242,2.242,0,0,1,2.564,1.065q.64,1.053,1.267,2.115a2.107,2.107,0,0,1-.329,2.707c-.271.277-.555.541-.822.823a.7.7,0,0,0,0,1.063c.273.291.569.561.846.848a2.092,2.092,0,0,1,.322,2.65q-.64,1.095-1.3,2.176a2.211,2.211,0,0,1-2.408,1.059c-.4-.08-.8-.194-1.2-.281a.834.834,0,0,0-1.123.652c-.116.379-.223.761-.345,1.179h.421q3.2,0,6.407,0a2.9,2.9,0,0,1,3.079,3.06q.012,3.21,0,6.419a2.88,2.88,0,0,1-2.4,3.03.45.45,0,0,0-.093.048H76.141a.747.747,0,0,0-.078-.066.716.716,0,0,1-.392-.819.726.726,0,0,1,.78-.525q3.5,0,7,0a1.467,1.467,0,0,0,1.581-1.519q.02-3.35,0-6.7a1.462,1.462,0,0,0-1.55-1.514q-10.383,0-20.765,0a1.492,1.492,0,0,0-1.57,1.575q-.009,3.3,0,6.594a1.493,1.493,0,0,0,1.58,1.563c1.1,0,2.206,0,3.308,0,1.349,0,2.7,0,4.047,0a.706.706,0,0,1,.389,1.329c-.038.025-.073.054-.109.08Zm17.4-15.457a.879.879,0,0,0,.811-.445c.428-.715.861-1.427,1.283-2.146a.7.7,0,0,0-.137-.982c-.262-.269-.535-.528-.8-.8a2.133,2.133,0,0,1,0-3.091c.262-.269.536-.527.8-.8a.7.7,0,0,0,.133-.983q-.633-1.078-1.285-2.145a.8.8,0,0,0-.958-.4c-.447.1-.888.219-1.336.3a2.177,2.177,0,0,1-2.543-1.542c-.113-.358-.211-.721-.326-1.078a.8.8,0,0,0-.83-.625q-1.32-.015-2.64,0a.808.808,0,0,0-.84.661c-.113.37-.21.746-.333,1.113a2.169,2.169,0,0,1-2.489,1.478c-.46-.085-.913-.212-1.371-.309a.8.8,0,0,0-.955.408q-.651,1.068-1.285,2.145a.7.7,0,0,0,.112.959c.268.28.552.545.822.822a2.113,2.113,0,0,1,0,3.086c-.262.269-.536.527-.8.8a.7.7,0,0,0-.133.984q.633,1.078,1.285,2.145a.811.811,0,0,0,.99.4c.388-.089.773-.191,1.162-.278a2.215,2.215,0,0,1,2.707,1.588c.1.337.193.677.3,1.013a.781.781,0,0,0,.8.618q1.355.014,2.71,0a.765.765,0,0,0,.781-.588c.109-.335.2-.675.3-1.011a2.209,2.209,0,0,1,2.785-1.6Z" transform="translate(-18.406 -43.465)" fill="#0a083b"/>
    <path id="Path_4395" data-name="Path 4395" d="M55.693,144c.728.114,1.462.2,2.182.348a15.251,15.251,0,0,1,11.718,17.914,1.5,1.5,0,0,0-.027.174.946.946,0,0,0,.019.149c.248-.145.474-.285.706-.412a.7.7,0,0,1,.988.209.692.692,0,0,1-.269,1q-1.127.686-2.272,1.341a.691.691,0,0,1-1.016-.3q-.665-1.2-1.3-2.418a.7.7,0,1,1,1.244-.652,5.222,5.222,0,0,0,.531.82c.078-.531.177-1.059.23-1.592a13.822,13.822,0,0,0-27.358-3.806,13.623,13.623,0,0,0,.451,6.752c.032.1.065.2.1.3a.709.709,0,1,1-1.342.42,15.246,15.246,0,0,1,13.113-20.187A1.873,1.873,0,0,0,53.65,144Z" fill="#175cff"/>
    <path id="Path_4396" data-name="Path 4396" d="M196.422,514.458c-.065-.046-.133-.09-.2-.138a.7.7,0,1,1,.815,0c-.063.049-.131.093-.2.139Z" transform="translate(-141.785 -334.33)" fill="#0a083b"/>
    <path id="Path_4397" data-name="Path 4397" d="M234.452,426.492q-.19,1.045-.38,2.091c-.052.289-.1.579-.154.867a.722.722,0,0,1-.822.639.7.7,0,0,1-.567-.87q.486-2.775,1-5.545a.83.83,0,0,1,1.621-.069c.328,1.077.642,2.159.961,3.239.026.089.056.178.1.326.051-.125.089-.2.111-.277.3-1.06.605-2.121.91-3.181a.844.844,0,0,1,1.677.055q.516,2.7,1.021,5.4a.7.7,0,1,1-1.37.271c-.188-.932-.363-1.866-.544-2.8a.214.214,0,0,0-.1-.156c-.1.353-.21.705-.311,1.059-.177.621-.347,1.243-.525,1.863a.855.855,0,0,1-.86.734c-.41-.007-.675-.241-.821-.733-.257-.866-.511-1.733-.768-2.6-.031-.106-.073-.209-.109-.314Z" transform="translate(-174.926 -252.737)" fill="#0a083b"/>
    <path id="Path_4398" data-name="Path 4398" d="M174.743,427.27c.473.541.923,1.051,1.368,1.566a.716.716,0,0,1,.023,1.089.73.73,0,0,1-1.078-.16c-.492-.552-.977-1.111-1.464-1.667a.791.791,0,0,0-.317-.251c0,.5,0,1,0,1.5a.627.627,0,0,1-.411.671.946.946,0,0,1-.686-.063.8.8,0,0,1-.3-.587c-.022-1.892-.016-3.784-.011-5.676a.685.685,0,0,1,.749-.744c.493-.007.985-.006,1.478,0a2.241,2.241,0,0,1,2.239,1.816,2.177,2.177,0,0,1-1.389,2.419Zm-1.454-1.357c.335,0,.639.022.939-.005a.767.767,0,0,0,.039-1.531,8.464,8.464,0,0,0-.977-.008Z" transform="translate(-119.982 -252.697)" fill="#0a083b"/>
    <path id="Path_4399" data-name="Path 4399" d="M92.443,426.123a3.368,3.368,0,0,1,1.832-2.862,3.432,3.432,0,0,1,3.613.076.717.717,0,0,1,.2,1.176c-.265.242-.539.243-.967,0a2.169,2.169,0,0,0-2.949,3.007,2.094,2.094,0,0,0,2.2.979,2.123,2.123,0,0,0,.843-.463c.4-.333.784-.4,1.089-.1a.747.747,0,0,1-.1,1.118,3.338,3.338,0,0,1-4.458.093A3.708,3.708,0,0,1,92.443,426.123Z" transform="translate(-48.033 -252.556)" fill="#0a083b"/>
    <path id="Path_4400" data-name="Path 4400" d="M163.6,258.17a4.418,4.418,0,1,1-4.437-4.418A4.5,4.5,0,0,1,163.6,258.17Zm-1.411.01a3.008,3.008,0,1,0-3,3.019A3.056,3.056,0,0,0,162.19,258.18Z" transform="translate(-104.492 -99.426)" fill="#0a083b"/>
  </g>
</svg>
