<svg xmlns="http://www.w3.org/2000/svg" width="58.127" height="49.449" viewBox="0 0 58.127 49.449">
  <g id="Group_628" data-name="Group 628" transform="translate(2271.903 1402)">
    <g id="Group_610" data-name="Group 610" transform="translate(-2916.533 -1971.001)">
      <g id="Group_142" data-name="Group 142" transform="translate(644.63 569.001)">
        <g id="Group_133" data-name="Group 133" transform="translate(27.178 43.264)">
          <path id="Path_105" data-name="Path 105" d="M754.451,734.215a.24.24,0,0,1-.07.17l-5.705,5.705a.24.24,0,0,1-.34-.34l5.705-5.705a.24.24,0,0,1,.41.17Z" transform="translate(-748.265 -733.975)" fill="#a9bdec"/>
        </g>
        <g id="Group_134" data-name="Group 134" transform="translate(23.778 21.302)">
          <path id="Path_106" data-name="Path 106" d="M757.564,650.471a.241.241,0,0,1-.07.17L735.71,672.425a.24.24,0,0,1-.34-.34L757.154,650.3a.24.24,0,0,1,.41.17Z" transform="translate(-735.3 -650.231)" fill="#a9bdec"/>
        </g>
        <g id="Group_135" data-name="Group 135" transform="translate(20.381)">
          <path id="Path_107" data-name="Path 107" d="M760.03,569.241a.24.24,0,0,1-.07.17l-37.2,37.2a.24.24,0,0,1-.34-.34l37.2-37.2a.24.24,0,0,1,.41.17Z" transform="translate(-722.349 -569.001)" fill="#a9bdec"/>
        </g>
        <g id="Group_136" data-name="Group 136" transform="translate(16.985)">
          <path id="Path_108" data-name="Path 108" d="M741.2,569.241a.241.241,0,0,1-.07.17l-31.318,31.318a.24.24,0,0,1-.34-.34l31.318-31.318a.24.24,0,0,1,.41.17Z" transform="translate(-709.398 -569.001)" fill="#a9bdec"/>
        </g>
        <g id="Group_137" data-name="Group 137" transform="translate(13.589)">
          <path id="Path_109" data-name="Path 109" d="M722.359,569.241a.24.24,0,0,1-.07.17l-25.432,25.432a.24.24,0,0,1-.34-.34l25.432-25.432a.24.24,0,0,1,.41.17Z" transform="translate(-696.447 -569.001)" fill="#a9bdec"/>
        </g>
        <g id="Group_138" data-name="Group 138" transform="translate(10.189)">
          <path id="Path_110" data-name="Path 110" d="M703.512,569.241a.241.241,0,0,1-.07.17L683.893,588.96a.24.24,0,0,1-.34-.34L703.1,569.071a.24.24,0,0,1,.41.17Z" transform="translate(-683.483 -569.001)" fill="#a9bdec"/>
        </g>
        <g id="Group_139" data-name="Group 139" transform="translate(6.793)">
          <path id="Path_111" data-name="Path 111" d="M684.676,569.241a.241.241,0,0,1-.07.17l-13.664,13.663a.24.24,0,0,1-.34-.34l13.663-13.663a.24.24,0,0,1,.41.17Z" transform="translate(-670.532 -569.001)" fill="#a9bdec"/>
        </g>
        <g id="Group_140" data-name="Group 140" transform="translate(3.396)">
          <path id="Path_112" data-name="Path 112" d="M665.838,569.241a.241.241,0,0,1-.07.17l-7.777,7.777a.24.24,0,0,1-.34-.34l7.777-7.777a.24.24,0,0,1,.41.17Z" transform="translate(-657.581 -569.001)" fill="#a9bdec"/>
        </g>
        <g id="Group_141" data-name="Group 141">
          <path id="Path_113" data-name="Path 113" d="M647,569.241a.24.24,0,0,1-.07.17L645.04,571.3a.24.24,0,0,1-.34-.34l1.891-1.891a.24.24,0,0,1,.41.17Z" transform="translate(-644.63 -569.001)" fill="#a9bdec"/>
        </g>
      </g>
    </g>
    <g id="Group_616" data-name="Group 616" transform="translate(-2341.005 -1536.433)">
      <path id="Path_4379" data-name="Path 4379" d="M91,161.248c.07-.09.147-.174.208-.27,1.216-1.908,2.438-3.812,3.636-5.731a1.08,1.08,0,0,1,1.032-.574c3.278.016,6.556.005,9.834.014a.777.777,0,0,0,.616-.258q.986-1.015,2-2a.779.779,0,0,0,.26-.617c-.009-2.17-.006-4.34-.005-6.51,0-.549.164-.807.514-.819s.535.253.548.821c0,.092.014.183.023.306h.468c1.486,0,2.972-.011,4.457.012a.966.966,0,0,1,.633.271c.2.22.048.483-.1.707-.278.408-.549.822-.831,1.244.285.43.561.854.846,1.272.148.217.28.469.093.678a.9.9,0,0,1-.6.268c-1.521.022-3.042.012-4.563.012h-.421c0,.7-.006,1.352.007,2.008,0,.087.093.185.164.257.722.728,1.442,1.46,2.182,2.17a.784.784,0,0,0,.5.166q4.934.014,9.869,0a1.027,1.027,0,0,1,.982.533c1.206,1.928,2.434,3.842,3.656,5.76.147.231.309.457.14.748s-.439.279-.714.279h-.893v14.82c.345,0,.683,0,1.021,0,.414.005.659.207.656.533s-.249.526-.665.528c-.884,0-1.769,0-2.653,0q-16.042,0-32.083,0a.839.839,0,0,1-.821-.357v-.354a.742.742,0,0,1,.745-.36c.311.019.625,0,.929,0V162c-.308,0-.591-.013-.872,0a.869.869,0,0,1-.8-.326ZM124.45,162h-.435c-1.851,0-3.7-.006-5.552.006a1.087,1.087,0,0,1-.842-.351q-4.092-4.113-8.2-8.21c-.1-.1-.2-.19-.348-.332a4.341,4.341,0,0,1-.287.358q-4.087,4.093-8.173,8.186a1.087,1.087,0,0,1-.843.348c-1.851-.011-3.7-.005-5.554-.005H93.8v14.792H105.18v-.45c0-2.241,0-4.482,0-6.722a1.685,1.685,0,0,1,1.853-1.871q2.087-.006,4.174,0a2.437,2.437,0,0,1,.6.055,1.69,1.69,0,0,1,1.252,1.82q0,3.379,0,6.758v.415H124.45Zm-19.48-6.231c-.135-.01-.191-.017-.247-.017-2.886,0-5.772,0-8.658.01a.579.579,0,0,0-.409.237c-.992,1.532-1.967,3.074-2.946,4.614-.054.085-.1.178-.161.293.115.012.194.028.273.028,2.25,0,4.5.006,6.749-.009a.774.774,0,0,0,.477-.227q2.323-2.3,4.627-4.619C104.761,155.991,104.838,155.9,104.97,155.764Zm8.307-.018c.092.115.135.18.19.235q2.385,2.388,4.778,4.768a.723.723,0,0,0,.465.173c2.214.011,4.429.008,6.643.007.1,0,.2-.015.34-.026-.079-.136-.132-.237-.193-.333-.959-1.511-1.923-3.018-2.874-4.533a.551.551,0,0,0-.537-.294c-2.8.009-5.607.006-8.41.006Zm-7.018,21.048h2.3V171.1h-2.3Zm5.711,0V171.1h-2.3v5.691Zm-2.3-27.81h4.095c-.106-.164-.185-.292-.269-.417-.481-.721-.481-.721-.011-1.428.093-.14.18-.283.286-.449h-4.1Zm-3.407,21h5.706a5.767,5.767,0,0,0,0-.653.537.537,0,0,0-.568-.517q-2.278-.012-4.557,0a.537.537,0,0,0-.572.514A5.709,5.709,0,0,0,106.266,169.985Z" transform="translate(0 1.951)" fill="#0a083b"/>
      <path id="Path_4380" data-name="Path 4380" d="M254.714,297.8a3.936,3.936,0,1,1-3.976,3.9A3.943,3.943,0,0,1,254.714,297.8Zm-.151,1.079a2.862,2.862,0,1,0,2.963,2.765A2.867,2.867,0,0,0,254.563,298.874Z" transform="translate(-145.554 -139.703)" fill="#175cff"/>
      <path id="Path_4381" data-name="Path 4381" d="M139.568,364.3c0,.589,0,1.178,0,1.766,0,.455-.188.652-.64.658q-1.307.015-2.614,0c-.442-.005-.637-.215-.639-.666q-.008-1.766,0-3.533a.733.733,0,0,1,.824-.833q1.13-.016,2.26,0c.559.009.8.272.809.841C139.572,363.126,139.568,363.715,139.568,364.3Zm-1.084-1.514h-1.725v1.154h1.725Zm0,2.269h-1.726v.588h1.726Z" transform="translate(-40.7 -195.925)" fill="#0a083b"/>
      <path id="Path_4382" data-name="Path 4382" d="M197.03,364.3c0,.589,0,1.178,0,1.766,0,.463-.182.659-.632.665q-1.307.016-2.614,0c-.443-.005-.646-.211-.648-.659q-.011-1.766,0-3.533a.735.735,0,0,1,.818-.839q1.13-.018,2.261,0c.564.008.808.264.815.834C197.036,363.12,197.03,363.709,197.03,364.3Zm-1.082-1.518h-1.724v1.165h1.724Zm-1.731,2.863h1.732v-.587h-1.732Z" transform="translate(-93.059 -195.926)" fill="#0a083b"/>
      <path id="Path_4383" data-name="Path 4383" d="M353.021,364.292c0-.589-.006-1.178,0-1.766.008-.564.257-.816.826-.823q1.112-.015,2.225,0a.743.743,0,0,1,.843.851q.012,1.749,0,3.5c0,.485-.2.681-.7.685q-1.254.01-2.508,0c-.515,0-.689-.186-.692-.713C353.018,365.446,353.021,364.869,353.021,364.292Zm1.079-.347h1.736v-1.156H354.1Zm.007,1.106v.593h1.725v-.593Z" transform="translate(-238.756 -195.932)" fill="#0a083b"/>
      <path id="Path_4384" data-name="Path 4384" d="M410.515,364.283c0-.589,0-1.178,0-1.766.006-.548.251-.815.789-.825q1.165-.021,2.331,0a.706.706,0,0,1,.77.775c.012,1.213.01,2.426,0,3.639a.551.551,0,0,1-.618.614q-1.324.018-2.649,0c-.434-.005-.619-.2-.624-.637C410.51,365.485,410.515,364.884,410.515,364.283Zm1.081-.347h1.726v-1.162H411.6Zm1.743,1.113H411.6v.586h1.74Z" transform="translate(-291.147 -195.92)" fill="#0a083b"/>
      <path id="Path_4385" data-name="Path 4385" d="M139.568,440.694c0,.518,0,1.037,0,1.555-.005.44-.188.642-.613.647q-1.325.015-2.651,0a.558.558,0,0,1-.628-.639q-.011-1.591,0-3.182c0-.439.194-.635.62-.639q1.325-.011,2.651,0c.433,0,.616.192.621.631C139.572,439.609,139.568,440.151,139.568,440.694Zm-1.08-1.17h-1.736v.591h1.736Zm-1.737,2.287h1.736v-.592h-1.736Z" transform="translate(-40.699 -265.857)" fill="#0a083b"/>
      <path id="Path_4386" data-name="Path 4386" d="M197.024,440.668c0,.53.006,1.061,0,1.591-.006.439-.19.634-.62.638q-1.325.014-2.651,0a.55.55,0,0,1-.62-.612q-.017-1.626,0-3.252c0-.409.212-.592.629-.6q1.325-.01,2.651,0c.418,0,.6.188.61.6C197.031,439.584,197.024,440.126,197.024,440.668Zm-2.821-.558h1.739v-.585H194.2Zm0,1.708h1.734v-.587H194.2Z" transform="translate(-93.053 -265.858)" fill="#0a083b"/>
      <path id="Path_4387" data-name="Path 4387" d="M356.918,440.657c0,.518.006,1.037,0,1.555-.007.492-.2.685-.691.688q-1.272.007-2.545,0c-.474,0-.657-.191-.659-.672q-.007-1.573,0-3.146c0-.461.184-.641.643-.644q1.308-.008,2.615,0c.432,0,.625.192.634.628C356.927,439.6,356.918,440.127,356.918,440.657Zm-1.081-1.135h-1.724v.593h1.724Zm.006,1.707h-1.737v.58h1.737Z" transform="translate(-238.755 -265.859)" fill="#0a083b"/>
      <path id="Path_4388" data-name="Path 4388" d="M410.515,440.652c0-.53-.005-1.061,0-1.591.006-.433.192-.619.63-.622q1.308-.009,2.615,0c.453,0,.644.193.647.649q.009,1.573,0,3.146c0,.469-.2.664-.673.667q-1.272.009-2.545,0c-.494,0-.672-.19-.676-.693C410.512,441.689,410.515,441.17,410.515,440.652Zm2.818.576H411.6v.589h1.736Zm.007-1.706h-1.734v.587h1.734Z" transform="translate(-291.147 -265.859)" fill="#0a083b"/>
      <path id="Path_4389" data-name="Path 4389" d="M271.756,318.831c0-.424-.018-.8,0-1.169a.5.5,0,0,1,.648-.5.49.49,0,0,1,.393.517c.01.553.017,1.106,0,1.658a.506.506,0,0,1-.557.551c-.54.019-1.082.018-1.622,0a.527.527,0,1,1,0-1.051C270.976,318.818,271.328,318.831,271.756,318.831Z" transform="translate(-163.16 -157.332)" fill="#175cff"/>
    </g>
  </g>
</svg>
