<svg xmlns="http://www.w3.org/2000/svg" width="61.66" height="49.449" viewBox="0 0 61.66 49.449">
  <g id="Group_603" data-name="Group 603" transform="translate(-97.829 -3067.539)">
    <g id="Group_286" data-name="Group 286" transform="translate(-546.801 2498.538)">
      <g id="Group_142" data-name="Group 142" transform="translate(644.63 569.001)">
        <g id="Group_133" data-name="Group 133" transform="translate(27.178 43.264)">
          <path id="Path_105" data-name="Path 105" d="M754.451,734.215a.24.24,0,0,1-.07.17l-5.705,5.705a.24.24,0,0,1-.34-.34l5.705-5.705a.24.24,0,0,1,.41.17Z" transform="translate(-748.265 -733.975)" fill="#a9bdec"/>
        </g>
        <g id="Group_134" data-name="Group 134" transform="translate(23.778 21.302)">
          <path id="Path_106" data-name="Path 106" d="M757.564,650.471a.241.241,0,0,1-.07.17L735.71,672.425a.24.24,0,0,1-.34-.34L757.154,650.3a.24.24,0,0,1,.41.17Z" transform="translate(-735.3 -650.231)" fill="#a9bdec"/>
        </g>
        <g id="Group_135" data-name="Group 135" transform="translate(20.381)">
          <path id="Path_107" data-name="Path 107" d="M760.03,569.241a.24.24,0,0,1-.07.17l-37.2,37.2a.24.24,0,0,1-.34-.34l37.2-37.2a.24.24,0,0,1,.41.17Z" transform="translate(-722.349 -569.001)" fill="#a9bdec"/>
        </g>
        <g id="Group_136" data-name="Group 136" transform="translate(16.985)">
          <path id="Path_108" data-name="Path 108" d="M741.2,569.241a.241.241,0,0,1-.07.17l-31.318,31.318a.24.24,0,0,1-.34-.34l31.318-31.318a.24.24,0,0,1,.41.17Z" transform="translate(-709.398 -569.001)" fill="#a9bdec"/>
        </g>
        <g id="Group_137" data-name="Group 137" transform="translate(13.589)">
          <path id="Path_109" data-name="Path 109" d="M722.359,569.241a.24.24,0,0,1-.07.17l-25.432,25.432a.24.24,0,0,1-.34-.34l25.432-25.432a.24.24,0,0,1,.41.17Z" transform="translate(-696.447 -569.001)" fill="#a9bdec"/>
        </g>
        <g id="Group_138" data-name="Group 138" transform="translate(10.189)">
          <path id="Path_110" data-name="Path 110" d="M703.512,569.241a.241.241,0,0,1-.07.17L683.893,588.96a.24.24,0,0,1-.34-.34L703.1,569.071a.24.24,0,0,1,.41.17Z" transform="translate(-683.483 -569.001)" fill="#a9bdec"/>
        </g>
        <g id="Group_139" data-name="Group 139" transform="translate(6.793)">
          <path id="Path_111" data-name="Path 111" d="M684.676,569.241a.241.241,0,0,1-.07.17l-13.664,13.663a.24.24,0,0,1-.34-.34l13.663-13.663a.24.24,0,0,1,.41.17Z" transform="translate(-670.532 -569.001)" fill="#a9bdec"/>
        </g>
        <g id="Group_140" data-name="Group 140" transform="translate(3.396)">
          <path id="Path_112" data-name="Path 112" d="M665.838,569.241a.241.241,0,0,1-.07.17l-7.777,7.777a.24.24,0,0,1-.34-.34l7.777-7.777a.24.24,0,0,1,.41.17Z" transform="translate(-657.581 -569.001)" fill="#a9bdec"/>
        </g>
        <g id="Group_141" data-name="Group 141">
          <path id="Path_113" data-name="Path 113" d="M647,569.241a.24.24,0,0,1-.07.17L645.04,571.3a.24.24,0,0,1-.34-.34l1.891-1.891a.24.24,0,0,1,.41.17Z" transform="translate(-644.63 -569.001)" fill="#a9bdec"/>
        </g>
      </g>
    </g>
    <g id="c" transform="translate(120.86 3075.704)">
      <g id="Group_335" data-name="Group 335" transform="translate(4.829 4.829)">
        <g id="Group_379" data-name="Group 379">
          <path id="Path_3211" data-name="Path 3211" d="M46.5,32.814V23.156a3.219,3.219,0,0,0-3.22-3.219H22.359a3.219,3.219,0,0,0-3.219,3.219V45.69a3.219,3.219,0,0,0,3.219,3.219h8.048" transform="translate(-19.14 -19.937)" fill="none" stroke="#0a083b" stroke-linecap="round" stroke-linejoin="round" stroke-width="2"/>
        </g>
        <path id="Path_3212" data-name="Path 3212" d="M37.54,44.066l5.736-5.736a1.607,1.607,0,0,0,0-2.276l-2.558-2.548a1.609,1.609,0,0,0-2.276,0l-5.736,5.736a1.61,1.61,0,0,0-.472,1.138v4.163H36.4a1.61,1.61,0,0,0,1.138-.471Z" transform="translate(-14.769 -15.564)" fill="none" stroke="#175cff" stroke-linecap="round" stroke-linejoin="round" stroke-width="2"/>
        <path id="Path_3213" data-name="Path 3213" d="M22.551,22.942a.008.008,0,1,0,.008.008.008.008,0,0,0-.008-.008" transform="translate(-18.004 -18.934)" fill="none" stroke="#0a083b" stroke-linecap="round" stroke-linejoin="round" stroke-width="2"/>
        <path id="Path_3214" data-name="Path 3214" d="M25.62,22.942a.008.008,0,1,0,.008.008.008.008,0,0,0-.008-.008" transform="translate(-16.979 -18.934)" fill="none" stroke="#0a083b" stroke-linecap="round" stroke-linejoin="round" stroke-width="2"/>
        <path id="Path_3215" data-name="Path 3215" d="M28.683,22.942a.008.008,0,1,0,.008.008.008.008,0,0,0-.008-.008" transform="translate(-15.957 -18.934)" fill="none" stroke="#0a083b" stroke-linecap="round" stroke-linejoin="round" stroke-width="2"/>
        <path id="Path_3216" data-name="Path 3216" d="M19.2,25.971H46.479" transform="translate(-19.121 -17.922)" fill="none" stroke="#0a083b" stroke-linecap="round" stroke-linejoin="round" stroke-width="2"/>
      </g>
      <path id="Path_3217" data-name="Path 3217" d="M15.52,16.317H54.15v38.63H15.52Z" transform="translate(-15.52 -16.317)" fill="none"/>
    </g>
  </g>
</svg>
